<svg width="254" height="124" viewBox="0 0 254 124" fill="none" xmlns="http://www.w3.org/2000/svg">
<path d="M22.536 48.256C14.5573 48.256 8.648 45.9947 4.808 41.472C3.44267 39.8507 2.33333 37.696 1.48 35.008C0.626667 32.32 0.2 29.056 0.2 25.216C0.2 21.376 0.818667 17.9413 2.056 14.912C3.336 11.84 5.064 9.472 7.24 7.808C11.464 4.69333 16.5627 3.136 22.536 3.136C24.2427 3.136 25.9067 3.28533 27.528 3.584C29.1493 3.84 30.3653 4.11733 31.176 4.416L32.328 4.864L32.136 5.504C29.2347 4.352 26.0347 3.776 22.536 3.776C18.0133 3.776 14.2373 5.248 11.208 8.192C8.904 10.368 7.28267 13.568 6.344 17.792C5.78933 20.1813 5.512 23.104 5.512 26.56C5.512 30.016 6.00267 33.216 6.984 36.16C7.96533 39.0613 9.07467 41.216 10.312 42.624C11.592 44.032 13.128 45.1627 14.92 46.016C16.712 46.8267 18.1413 47.296 19.208 47.424C20.2747 47.552 21.5547 47.616 23.048 47.616C24.584 47.616 26.312 47.4667 28.232 47.168C30.152 46.8693 31.6027 46.592 32.584 46.336L34.056 45.888L34.248 46.528C31.0053 47.68 27.1013 48.256 22.536 48.256ZM65.492 48C62.5907 48 60.6067 47.4453 59.54 46.336C58.5587 45.3973 58.068 44.5867 58.068 43.904V42.56C55.9773 46.3573 52.628 48.256 48.02 48.256C42.644 48.256 39.5933 45.824 38.868 40.96C38.7827 40.448 38.74 39.936 38.74 39.424C38.74 38.8693 38.8253 38.272 38.996 37.632C39.1667 36.992 39.6573 36.288 40.468 35.52C42.0893 33.984 45.652 33.0453 51.156 32.704C52.5213 32.576 53.78 32.512 54.932 32.512C56.084 32.512 57.1293 32.5547 58.068 32.64V22.016C57.9827 21.9733 57.9827 21.7813 58.068 21.44C58.1533 21.056 58.068 20.5867 57.812 20.032C57.5987 19.4347 57.3 18.8587 56.916 18.304C56.532 17.7493 55.8493 17.28 54.868 16.896C53.8867 16.4693 52.6067 16.256 51.028 16.256C49.4493 16.256 47.5933 16.5547 45.46 17.152C43.3693 17.7067 41.8333 18.2613 40.852 18.816L40.596 18.368C44.3933 16.6187 48.2547 15.744 52.18 15.744C56.5747 15.744 59.476 16.5333 60.884 18.112C61.9933 19.3493 62.548 20.6507 62.548 22.016V43.456C62.548 44.6933 62.7827 45.6533 63.252 46.336C63.764 46.976 64.276 47.3173 64.788 47.36L65.492 47.488H67.476V48H65.492ZM49.044 47.744C51.3053 47.744 53.332 46.976 55.124 45.44C56.9587 43.8613 57.94 42.3467 58.068 40.896V33.152C56.916 33.0667 55.7427 33.024 54.548 33.024C53.396 33.024 52.244 33.088 51.092 33.216C47.8493 33.6 45.7373 34.3253 44.756 35.392C43.7747 36.4587 43.284 37.9307 43.284 39.808C43.284 40.1493 43.3053 40.5333 43.348 40.96C43.732 45.4827 45.6307 47.744 49.044 47.744ZM71.9275 16.512V16H73.2715V9.6H77.7515V16H87.5435V16.512H77.7515V39.808C77.7515 42.5813 78.0502 44.5867 78.6475 45.824C79.2875 47.0613 80.5888 47.68 82.5515 47.68C84.5568 47.68 86.5835 47.2747 88.6315 46.464L88.8235 46.976C86.6902 47.7867 84.2368 48.192 81.4635 48.192C78.7328 48.192 76.6848 47.6373 75.3195 46.528C73.9542 45.376 73.2715 43.1147 73.2715 39.744V16.512H71.9275ZM118.565 48C116.816 48 115.472 47.616 114.533 46.848C113.637 46.08 113.168 45.312 113.125 44.544L113.061 43.456V23.36C113.061 19.9893 112.165 17.8347 110.373 16.896C109.52 16.4693 108.432 16.256 107.109 16.256C104.464 16.256 102.074 17.344 99.941 19.52C97.8503 21.6533 96.805 23.5733 96.805 25.28V48H92.325V0.0639992H96.805V23.296C97.4877 21.4613 98.789 19.7547 100.709 18.176C102.629 16.5547 104.784 15.744 107.173 15.744C111.312 15.744 114.064 16.4693 115.429 17.92C116.837 19.328 117.541 21.1627 117.541 23.424V43.456C117.541 44.6933 117.776 45.6533 118.245 46.336C118.757 46.976 119.248 47.3173 119.717 47.36L120.485 47.488H122.469V48H118.565ZM130.35 32.384C130.35 37.6747 131.267 41.5573 133.102 44.032C134.979 46.5067 137.432 47.744 140.462 47.744C144.728 47.744 148.526 47.104 151.854 45.824L152.046 46.272C148.632 47.5947 144.771 48.256 140.462 48.256C136.195 48.256 132.718 46.976 130.03 44.416C127.342 41.856 125.998 37.9093 125.998 32.576C125.998 27.2427 127.406 23.104 130.222 20.16C133.038 17.216 136.622 15.744 140.974 15.744C144.472 15.744 147.416 16.7893 149.806 18.88C152.195 20.9707 153.39 24.064 153.39 28.16C153.39 28.3733 153.39 28.5867 153.39 28.8H130.542C130.414 29.952 130.35 31.1467 130.35 32.384ZM149.038 28.288C148.995 24.192 148.206 21.1627 146.67 19.2C145.134 17.2373 143.15 16.256 140.718 16.256C138.286 16.256 136.11 17.3227 134.19 19.456C132.312 21.5893 131.118 24.5333 130.606 28.288H149.038ZM168.222 18.752V17.408C166.302 18.176 164.552 19.7333 162.974 22.08C161.395 24.384 160.563 26.56 160.478 28.608V48H155.998V16H160.478V26.176C161.16 23.7013 162.462 21.376 164.382 19.2C166.302 16.9813 168.478 15.8293 170.91 15.744H171.166C172.019 15.744 172.723 16.0427 173.278 16.64C173.875 17.1947 174.174 17.8987 174.174 18.752C174.174 19.6053 173.875 20.3093 173.278 20.864C172.723 21.4187 172.019 21.696 171.166 21.696C170.312 21.696 169.608 21.4187 169.054 20.864C168.499 20.3093 168.222 19.6053 168.222 18.752ZM185.526 48C183.776 48 182.432 47.616 181.494 46.848C180.598 46.08 180.128 45.312 180.086 44.544L180.022 43.456V16H184.502V43.456C184.502 44.6933 184.736 45.6533 185.206 46.336C185.718 46.976 186.208 47.3173 186.678 47.36L187.446 47.488H189.43V48H185.526ZM180.406 8.832C179.894 8.32 179.638 7.68 179.638 6.912C179.638 6.144 179.894 5.504 180.406 4.992C180.918 4.43733 181.558 4.16 182.326 4.16C183.094 4.16 183.734 4.43733 184.246 4.992C184.8 5.504 185.078 6.144 185.078 6.912C185.078 7.68 184.8 8.32 184.246 8.832C183.734 9.344 183.094 9.6 182.326 9.6C181.558 9.6 180.918 9.344 180.406 8.832ZM219.87 48C218.121 48 216.777 47.616 215.838 46.848C214.942 46.08 214.473 45.312 214.43 44.544L214.366 43.456V23.36C214.366 19.9893 213.491 17.8347 211.742 16.896C210.846 16.4693 209.737 16.256 208.414 16.256C205.683 16.256 203.23 17.344 201.054 19.52C198.878 21.6533 197.79 23.5733 197.79 25.28V48H193.31V16H197.79V23.296C198.515 21.4613 199.859 19.7547 201.822 18.176C203.785 16.5547 205.939 15.744 208.286 15.744C210.633 15.744 212.531 15.9787 213.982 16.448C215.475 16.8747 216.563 17.4933 217.246 18.304C218.313 19.6267 218.846 21.3333 218.846 23.424V43.456C218.846 44.6933 219.081 45.6533 219.55 46.336C220.062 46.976 220.574 47.3173 221.086 47.36L221.79 47.488H223.774V48H219.87ZM230.725 32.384C230.725 37.6747 231.642 41.5573 233.477 44.032C235.354 46.5067 237.807 47.744 240.837 47.744C245.103 47.744 248.901 47.104 252.229 45.824L252.421 46.272C249.007 47.5947 245.146 48.256 240.837 48.256C236.57 48.256 233.093 46.976 230.405 44.416C227.717 41.856 226.373 37.9093 226.373 32.576C226.373 27.2427 227.781 23.104 230.597 20.16C233.413 17.216 236.997 15.744 241.349 15.744C244.847 15.744 247.791 16.7893 250.181 18.88C252.57 20.9707 253.765 24.064 253.765 28.16C253.765 28.3733 253.765 28.5867 253.765 28.8H230.917C230.789 29.952 230.725 31.1467 230.725 32.384ZM249.413 28.288C249.37 24.192 248.581 21.1627 247.045 19.2C245.509 17.2373 243.525 16.256 241.093 16.256C238.661 16.256 236.485 17.3227 234.565 19.456C232.687 21.5893 231.493 24.5333 230.981 28.288H249.413ZM6.6 78.264C8.47733 78.1787 10.312 78.136 12.104 78.136C13.9387 78.136 15.8587 78.328 17.864 78.712C19.912 79.096 21.9173 79.8213 23.88 80.888C25.8853 81.912 27.5707 83.256 28.936 84.92C30.344 86.5413 31.4747 88.696 32.328 91.384C33.1813 94.072 33.608 97.336 33.608 101.176C33.608 105.016 32.968 108.472 31.688 111.544C30.4507 114.573 28.744 116.899 26.568 118.52C22.344 121.677 17.2453 123.256 11.272 123.256C9.18133 123.256 6.984 123.171 4.68 123H1.48V78.264H6.6ZM6.792 122.488C7.688 122.573 8.81867 122.616 10.184 122.616C11.5493 122.616 12.5733 122.595 13.256 122.552C13.9387 122.509 14.8773 122.339 16.072 122.04C17.2667 121.699 18.376 121.251 19.4 120.696C20.424 120.141 21.4907 119.331 22.6 118.264C23.752 117.155 24.7333 115.853 25.544 114.36C27.3787 110.861 28.296 106.296 28.296 100.664C28.296 96.6533 27.8053 93.1973 26.824 90.296C25.8427 87.352 24.712 85.176 23.432 83.768C22.1947 82.36 20.68 81.2507 18.888 80.44C17.096 79.5867 15.6667 79.096 14.6 78.968C13.5333 78.84 12.296 78.776 10.888 78.776C9.48 78.776 8.11467 78.84 6.792 78.968V122.488ZM43.0995 107.384C43.0995 112.675 44.0168 116.557 45.8515 119.032C47.7288 121.507 50.1822 122.744 53.2115 122.744C57.4782 122.744 61.2755 122.104 64.6035 120.824L64.7955 121.272C61.3822 122.595 57.5208 123.256 53.2115 123.256C48.9448 123.256 45.4675 121.976 42.7795 119.416C40.0915 116.856 38.7475 112.909 38.7475 107.576C38.7475 102.243 40.1555 98.104 42.9715 95.16C45.7875 92.216 49.3715 90.744 53.7235 90.744C57.2222 90.744 60.1662 91.7893 62.5555 93.88C64.9448 95.9707 66.1395 99.064 66.1395 103.16C66.1395 103.373 66.1395 103.587 66.1395 103.8H43.2915C43.1635 104.952 43.0995 106.147 43.0995 107.384ZM61.7875 103.288C61.7448 99.192 60.9555 96.1627 59.4195 94.2C57.8835 92.2373 55.8995 91.256 53.4675 91.256C51.0355 91.256 48.8595 92.3227 46.9395 94.456C45.0622 96.5893 43.8675 99.5333 43.3555 103.288H61.7875ZM95.3075 123C93.5582 123 92.2142 122.616 91.2755 121.848C90.3795 121.08 89.9102 120.312 89.8675 119.544L89.8035 118.456V98.36C89.8035 94.9893 88.9288 92.8347 87.1795 91.896C86.2835 91.4693 85.1742 91.256 83.8515 91.256C81.1208 91.256 78.6675 92.344 76.4915 94.52C74.3155 96.6533 73.2275 98.5733 73.2275 100.28V123H68.7475V91H73.2275V98.296C73.9528 96.4613 75.2968 94.7547 77.2595 93.176C79.2222 91.5547 81.3768 90.744 83.7235 90.744C86.0702 90.744 87.9688 90.9787 89.4195 91.448C90.9128 91.8747 92.0008 92.4933 92.6835 93.304C93.7502 94.6267 94.2835 96.3333 94.2835 98.424V118.456C94.2835 119.693 94.5182 120.653 94.9875 121.336C95.4995 121.976 96.0115 122.317 96.5235 122.36L97.2275 122.488H99.2115V123H95.3075ZM106.162 107.384C106.162 112.675 107.079 116.557 108.914 119.032C110.791 121.507 113.245 122.744 116.274 122.744C120.541 122.744 124.338 122.104 127.666 120.824L127.858 121.272C124.445 122.595 120.583 123.256 116.274 123.256C112.007 123.256 108.53 121.976 105.842 119.416C103.154 116.856 101.81 112.909 101.81 107.576C101.81 102.243 103.218 98.104 106.034 95.16C108.85 92.216 112.434 90.744 116.786 90.744C120.285 90.744 123.229 91.7893 125.618 93.88C128.007 95.9707 129.202 99.064 129.202 103.16C129.202 103.373 129.202 103.587 129.202 103.8H106.354C106.226 104.952 106.162 106.147 106.162 107.384ZM124.85 103.288C124.807 99.192 124.018 96.1627 122.482 94.2C120.946 92.2373 118.962 91.256 116.53 91.256C114.098 91.256 111.922 92.3227 110.002 94.456C108.125 96.5893 106.93 99.5333 106.418 103.288H124.85ZM138.228 115.64C138.228 119.011 139.124 121.165 140.916 122.104C141.769 122.531 142.857 122.744 144.18 122.744C146.868 122.744 149.257 121.72 151.348 119.672C153.481 117.624 154.633 115.725 154.804 113.976V91H159.284V118.456C159.284 119.693 159.518 120.653 159.988 121.336C160.5 121.976 161.012 122.317 161.524 122.36L162.228 122.488H164.212V123H160.308C158.558 123 157.214 122.616 156.276 121.848C155.38 121.08 154.91 120.312 154.868 119.544L154.804 118.456V115.704C154.036 117.539 152.67 119.267 150.708 120.888C148.745 122.467 146.59 123.256 144.244 123.256C141.94 123.256 140.041 123.043 138.548 122.616C137.097 122.147 136.052 121.507 135.411 120.696C134.302 119.373 133.748 117.667 133.748 115.576V91H138.228V115.64ZM191.051 91.384L191.435 91C191.606 91.0853 191.819 91.3413 192.075 91.768C192.374 92.1947 192.544 92.5787 192.587 92.92C192.672 93.2613 192.715 93.5813 192.715 93.88C192.715 95.032 192.459 96.2053 191.947 97.4L179.659 123H179.019L167.115 91H171.595L181.387 117.496L191.307 97.4C191.819 96.504 192.075 95.4373 192.075 94.2C192.075 92.9627 191.734 92.024 191.051 91.384ZM200.6 107.384C200.6 112.675 201.517 116.557 203.352 119.032C205.229 121.507 207.682 122.744 210.712 122.744C214.978 122.744 218.776 122.104 222.104 120.824L222.296 121.272C218.882 122.595 215.021 123.256 210.712 123.256C206.445 123.256 202.968 121.976 200.28 119.416C197.592 116.856 196.248 112.909 196.248 107.576C196.248 102.243 197.656 98.104 200.472 95.16C203.288 92.216 206.872 90.744 211.224 90.744C214.722 90.744 217.666 91.7893 220.056 93.88C222.445 95.9707 223.64 99.064 223.64 103.16C223.64 103.373 223.64 103.587 223.64 103.8H200.792C200.664 104.952 200.6 106.147 200.6 107.384ZM219.288 103.288C219.245 99.192 218.456 96.1627 216.92 94.2C215.384 92.2373 213.4 91.256 210.968 91.256C208.536 91.256 206.36 92.3227 204.44 94.456C202.562 96.5893 201.368 99.5333 200.856 103.288H219.288Z" fill="#242424"/>
</svg>
